<svg id="Capa_1" enable-background="new 0 0 512 512" height="512" viewBox="0 0 512 512" width="512" xmlns="http://www.w3.org/2000/svg"><g><g><g><g><path d="m240.965 0h30.07v448.128h-30.07z" fill="#cc9b7c"/></g></g></g><g><path d="m256 0h15.035v448.128h-15.035z" fill="#bf825b"/></g><g><path d="m382.942 138.093h-243.867v-99.003h243.514l46.233 47.389z" fill="#fee46f"/></g><g><path d="m372.925 296.971h-243.514l-46.233-47.389 45.88-51.615h243.867z" fill="#dbeffa"/></g><path d="m428.822 86.479-46.233-47.389h-126.589v99.003h126.942z" fill="#fed330"/><path d="m256 197.967h116.925v99.004h-116.925z" fill="#cbe8f8"/><g><path d="m378.141 512h-244.282v-3.225c0-34.746 28.167-62.913 62.913-62.913h118.455c34.746 0 62.913 28.167 62.913 62.913v3.225z" fill="#97de3d"/></g><g><path d="m378.141 512v-3.225c0-34.746-28.167-62.913-62.913-62.913h-59.228v66.138z" fill="#59c36a"/></g></g></svg>