<svg id="Capa_1" enable-background="new 0 0 512 512" height="512" viewBox="0 0 512 512" width="512" xmlns="http://www.w3.org/2000/svg"><g><g><path d="m389.667 155.525v46.248l122.333-10.58v-30z" fill="#efe2dd"/><path d="m384 191.193h128v63.851h-128z" fill="#7fc0fd"/><path d="m256 54.289c63.593 0 127.324 6.952 189.422 20.662 18.805 4.152 35.804 14.692 47.865 29.679 12.067 14.995 18.713 33.845 18.713 53.077v3.485h-256l-21.333-54.527z" fill="#fdae02"/></g><g><path d="m121.667 155.556-121.667 5.637v30l121.667 10.522z" fill="#f7f0eb"/><path d="m0 191.193h128v63.851h-128z" fill="#9ccefd"/><path d="m256 54.289c-63.593 0-127.324 6.952-189.422 20.662-18.805 4.152-35.804 14.692-47.865 29.679-12.067 14.995-18.713 33.845-18.713 53.077v3.485h256z" fill="#fdcb02"/></g><g><path d="m473.666 395.998c0-21.447-10.654-41.354-28.499-53.251l-3.501-2.334v-85.37l-42.666-42.667v-83.332h-143l-10.667 180.289 10.667 148.378h217.666z" fill="#dd4c12"/><path d="m113 129.044v83.333l-42.666 42.667v85.37l-3.502 2.334c-17.845 11.897-28.499 31.804-28.499 53.251v61.712h217.667v-328.667z" fill="#e07037"/></g><g><path d="m256 213.377-10.667 85.288 10.667 74.712c44.183 0 80-35.817 80-80 0-44.182-35.817-80-80-80z" fill="#f7f0eb"/><path d="m176 293.377c0 44.183 35.817 80 80 80v-160c-44.183 0-80 35.818-80 80z" fill="#fffbf5"/></g><g><path d="m256 198.377-10.667 14.956 10.667 15.044c35.841 0 65 29.159 65 65s-29.159 65-65 65l-10.667 14.956 10.667 15.044c52.383 0 95-42.617 95-95s-42.617-95-95-95z" fill="#f2d1a5"/><path d="m191 293.377c0-35.841 29.159-65 65-65v-30c-52.383 0-95 42.617-95 95s42.617 95 95 95v-30c-35.841 0-65-29.158-65-65z" fill="#f8e4c2"/></g><g><g><path d="m271 278.377h-15l-10.667 15 10.667 15h15z" fill="#dd4c12"/><path d="m241 278.377h15v30h-15z" fill="#e07037"/></g></g></g></svg>